<svg width="130" height="38" viewBox="0 0 130 38" fill="none" xmlns="http://www.w3.org/2000/svg">
<rect width="130" height="38" rx="6" fill="#FFC915"/>
<path d="M28.1506 24H26.858L30.5966 13.8182H31.8693L35.608 24H34.3153L31.2727 15.429H31.1932L28.1506 24ZM28.6278 20.0227H33.8381V21.1165H28.6278V20.0227ZM39.9183 24.1591C39.282 24.1591 38.7202 23.9983 38.233 23.6768C37.7457 23.352 37.3646 22.8946 37.0895 22.3047C36.8144 21.7114 36.6768 21.0104 36.6768 20.2017C36.6768 19.3996 36.8144 18.7036 37.0895 18.1136C37.3646 17.5237 37.7474 17.0679 38.2379 16.7464C38.7285 16.425 39.2952 16.2642 39.9382 16.2642C40.4354 16.2642 40.8281 16.3471 41.1165 16.5128C41.4081 16.6752 41.6302 16.8608 41.7827 17.0696C41.9384 17.2751 42.0594 17.4441 42.1456 17.5767H42.245V13.8182H43.4183V24H42.2848V22.8267H42.1456C42.0594 22.9659 41.9368 23.1416 41.7777 23.3537C41.6186 23.5625 41.3916 23.7498 41.0966 23.9155C40.8016 24.0779 40.4089 24.1591 39.9183 24.1591ZM40.0774 23.1051C40.5481 23.1051 40.9458 22.9825 41.2706 22.7372C41.5954 22.4886 41.8423 22.1456 42.0114 21.7081C42.1804 21.2673 42.2649 20.7585 42.2649 20.1818C42.2649 19.6117 42.1821 19.1129 42.0163 18.6854C41.8506 18.2545 41.6054 17.9197 41.2805 17.6811C40.9557 17.4392 40.5547 17.3182 40.0774 17.3182C39.5803 17.3182 39.166 17.4458 38.8345 17.701C38.5064 17.9529 38.2595 18.2959 38.0938 18.7301C37.9313 19.161 37.8501 19.6449 37.8501 20.1818C37.8501 20.7254 37.933 21.2192 38.0987 21.6634C38.2678 22.1042 38.5163 22.4555 38.8445 22.7173C39.1759 22.9759 39.5869 23.1051 40.0774 23.1051ZM48.6136 24.1591C47.9773 24.1591 47.4155 23.9983 46.9283 23.6768C46.4411 23.352 46.0599 22.8946 45.7848 22.3047C45.5097 21.7114 45.3722 21.0104 45.3722 20.2017C45.3722 19.3996 45.5097 18.7036 45.7848 18.1136C46.0599 17.5237 46.4427 17.0679 46.9332 16.7464C47.4238 16.425 47.9905 16.2642 48.6335 16.2642C49.1307 16.2642 49.5234 16.3471 49.8118 16.5128C50.1035 16.6752 50.3255 16.8608 50.478 17.0696C50.6338 17.2751 50.7547 17.4441 50.8409 17.5767H50.9403V13.8182H52.1136V24H50.9801V22.8267H50.8409C50.7547 22.9659 50.6321 23.1416 50.473 23.3537C50.3139 23.5625 50.0869 23.7498 49.7919 23.9155C49.4969 24.0779 49.1042 24.1591 48.6136 24.1591ZM48.7727 23.1051C49.2434 23.1051 49.6411 22.9825 49.9659 22.7372C50.2907 22.4886 50.5376 22.1456 50.7067 21.7081C50.8757 21.2673 50.9602 20.7585 50.9602 20.1818C50.9602 19.6117 50.8774 19.1129 50.7116 18.6854C50.5459 18.2545 50.3007 17.9197 49.9759 17.6811C49.651 17.4392 49.25 17.3182 48.7727 17.3182C48.2756 17.3182 47.8613 17.4458 47.5298 17.701C47.2017 17.9529 46.9548 18.2959 46.7891 18.7301C46.6267 19.161 46.5455 19.6449 46.5455 20.1818C46.5455 20.7254 46.6283 21.2192 46.794 21.6634C46.9631 22.1042 47.2116 22.4555 47.5398 22.7173C47.8712 22.9759 48.2822 23.1051 48.7727 23.1051ZM61.6839 16.3636V17.358H57.7266V16.3636H61.6839ZM58.88 14.5341H60.0533V21.8125C60.0533 22.1439 60.1013 22.3925 60.1974 22.5582C60.2969 22.7206 60.4228 22.83 60.5753 22.8864C60.7311 22.9394 60.8951 22.9659 61.0675 22.9659C61.1967 22.9659 61.3028 22.9593 61.3857 22.946C61.4685 22.9295 61.5348 22.9162 61.5845 22.9062L61.8232 23.9602C61.7436 23.9901 61.6326 24.0199 61.4901 24.0497C61.3475 24.0829 61.1669 24.0994 60.9482 24.0994C60.6167 24.0994 60.2919 24.0282 59.9737 23.8857C59.6589 23.7431 59.397 23.526 59.1882 23.2344C58.9827 22.9427 58.88 22.5748 58.88 22.1307V14.5341ZM66.4691 24.1591C65.7797 24.1591 65.1748 23.995 64.6545 23.6669C64.1374 23.3388 63.7331 22.8797 63.4414 22.2898C63.1531 21.6998 63.0089 21.0104 63.0089 20.2216C63.0089 19.4261 63.1531 18.7318 63.4414 18.1385C63.7331 17.5452 64.1374 17.0845 64.6545 16.7564C65.1748 16.4283 65.7797 16.2642 66.4691 16.2642C67.1585 16.2642 67.7617 16.4283 68.2788 16.7564C68.7991 17.0845 69.2035 17.5452 69.4918 18.1385C69.7835 18.7318 69.9293 19.4261 69.9293 20.2216C69.9293 21.0104 69.7835 21.6998 69.4918 22.2898C69.2035 22.8797 68.7991 23.3388 68.2788 23.6669C67.7617 23.995 67.1585 24.1591 66.4691 24.1591ZM66.4691 23.1051C66.9928 23.1051 67.4237 22.9709 67.7617 22.7024C68.0998 22.4339 68.35 22.081 68.5124 21.6435C68.6748 21.206 68.756 20.732 68.756 20.2216C68.756 19.7112 68.6748 19.2356 68.5124 18.7947C68.35 18.3539 68.0998 17.9976 67.7617 17.7259C67.4237 17.4541 66.9928 17.3182 66.4691 17.3182C65.9454 17.3182 65.5146 17.4541 65.1765 17.7259C64.8384 17.9976 64.5882 18.3539 64.4258 18.7947C64.2634 19.2356 64.1822 19.7112 64.1822 20.2216C64.1822 20.732 64.2634 21.206 64.4258 21.6435C64.5882 22.081 64.8384 22.4339 65.1765 22.7024C65.5146 22.9709 65.9454 23.1051 66.4691 23.1051ZM84.0101 17H82.7772C82.7043 16.6454 82.5766 16.3338 82.3944 16.0653C82.2154 15.7969 81.9966 15.5715 81.7381 15.3892C81.4829 15.2036 81.1995 15.0644 80.888 14.9716C80.5764 14.8788 80.2516 14.8324 79.9135 14.8324C79.2971 14.8324 78.7386 14.9882 78.2381 15.2997C77.7409 15.6113 77.3449 16.0703 77.0499 16.6768C76.7582 17.2834 76.6124 18.0275 76.6124 18.9091C76.6124 19.7907 76.7582 20.5348 77.0499 21.1413C77.3449 21.7479 77.7409 22.2069 78.2381 22.5185C78.7386 22.83 79.2971 22.9858 79.9135 22.9858C80.2516 22.9858 80.5764 22.9394 80.888 22.8466C81.1995 22.7538 81.4829 22.6162 81.7381 22.4339C81.9966 22.2483 82.2154 22.0213 82.3944 21.7528C82.5766 21.4811 82.7043 21.1695 82.7772 20.8182H84.0101C83.9173 21.3385 83.7483 21.8042 83.503 22.2152C83.2578 22.6262 82.9528 22.9759 82.5882 23.2642C82.2237 23.5492 81.8143 23.7663 81.3603 23.9155C80.9095 24.0646 80.4273 24.1392 79.9135 24.1392C79.0452 24.1392 78.2729 23.9271 77.5968 23.5028C76.9206 23.0786 76.3887 22.4754 76.0009 21.6932C75.6131 20.911 75.4192 19.983 75.4192 18.9091C75.4192 17.8352 75.6131 16.9072 76.0009 16.125C76.3887 15.3428 76.9206 14.7396 77.5968 14.3153C78.2729 13.8911 79.0452 13.679 79.9135 13.679C80.4273 13.679 80.9095 13.7536 81.3603 13.9027C81.8143 14.0518 82.2237 14.2706 82.5882 14.5589C82.9528 14.844 83.2578 15.192 83.503 15.603C83.7483 16.0107 83.9173 16.4763 84.0101 17ZM88.0906 24.179C87.6067 24.179 87.1675 24.0878 86.7731 23.9055C86.3787 23.7199 86.0655 23.4531 85.8335 23.1051C85.6014 22.7538 85.4854 22.3295 85.4854 21.8324C85.4854 21.3949 85.5716 21.0402 85.744 20.7685C85.9163 20.4934 86.1467 20.2779 86.435 20.1222C86.7234 19.9664 87.0415 19.8504 87.3896 19.7741C87.7409 19.6946 88.0939 19.6316 88.4485 19.5852C88.9125 19.5256 89.2887 19.4808 89.5771 19.451C89.8687 19.4179 90.0808 19.3632 90.2134 19.2869C90.3493 19.2107 90.4173 19.0781 90.4173 18.8892V18.8494C90.4173 18.3589 90.283 17.9777 90.0146 17.706C89.7494 17.4342 89.3467 17.2983 88.8065 17.2983C88.2463 17.2983 87.8072 17.4209 87.489 17.6662C87.1708 17.9115 86.9471 18.1733 86.8178 18.4517L85.7042 18.054C85.9031 17.59 86.1682 17.2287 86.4996 16.9702C86.8344 16.7083 87.199 16.526 87.5934 16.4233C87.9911 16.3172 88.3822 16.2642 88.7667 16.2642C89.012 16.2642 89.2937 16.294 89.6119 16.3537C89.9334 16.41 90.2433 16.5277 90.5415 16.7067C90.8432 16.8857 91.0934 17.1558 91.2923 17.517C91.4911 17.8783 91.5906 18.3622 91.5906 18.9688V24H90.4173V22.9659H90.3576C90.2781 23.1316 90.1455 23.3089 89.9599 23.4979C89.7743 23.6868 89.5273 23.8475 89.2191 23.9801C88.9109 24.1127 88.5347 24.179 88.0906 24.179ZM88.2695 23.125C88.7335 23.125 89.1246 23.0339 89.4428 22.8516C89.7643 22.6693 90.0063 22.4339 90.1687 22.1456C90.3344 21.8572 90.4173 21.554 90.4173 21.2358V20.1619C90.3675 20.2216 90.2582 20.2763 90.0891 20.326C89.9234 20.3724 89.7312 20.4138 89.5124 20.4503C89.297 20.4834 89.0865 20.5133 88.881 20.5398C88.6789 20.563 88.5148 20.5829 88.3888 20.5994C88.0839 20.6392 87.7989 20.7038 87.5337 20.7933C87.2719 20.8795 87.0598 21.0104 86.8974 21.1861C86.7383 21.3584 86.6587 21.5937 86.6587 21.892C86.6587 22.2997 86.8095 22.608 87.1112 22.8168C87.4161 23.0223 87.8022 23.125 88.2695 23.125ZM93.7321 24V16.3636H94.8656V17.517H94.9451C95.0843 17.1392 95.3362 16.8326 95.7008 16.5973C96.0654 16.362 96.4764 16.2443 96.9338 16.2443C97.0199 16.2443 97.1277 16.246 97.2569 16.2493C97.3862 16.2526 97.484 16.2576 97.5502 16.2642V17.4574C97.5105 17.4474 97.4193 17.4325 97.2768 17.4126C97.1376 17.3894 96.9901 17.3778 96.8343 17.3778C96.4631 17.3778 96.1317 17.4557 95.84 17.6115C95.5517 17.764 95.323 17.9761 95.1539 18.2479C94.9882 18.5163 94.9054 18.8229 94.9054 19.1676V24H93.7321ZM102.741 16.3636V17.358H98.7832V16.3636H102.741ZM99.9366 14.5341H101.11V21.8125C101.11 22.1439 101.158 22.3925 101.254 22.5582C101.354 22.7206 101.479 22.83 101.632 22.8864C101.788 22.9394 101.952 22.9659 102.124 22.9659C102.253 22.9659 102.359 22.9593 102.442 22.946C102.525 22.9295 102.591 22.9162 102.641 22.9062L102.88 23.9602C102.8 23.9901 102.689 24.0199 102.547 24.0497C102.404 24.0829 102.224 24.0994 102.005 24.0994C101.673 24.0994 101.349 24.0282 101.03 23.8857C100.715 23.7431 100.454 23.526 100.245 23.2344C100.039 22.9427 99.9366 22.5748 99.9366 22.1307V14.5341Z" fill="black"/>
</svg>
